<?xml version="1.0" standalone="no"?>
<!DOCTYPE svg PUBLIC "-//W3C//DTD SVG 20010904//EN"
 "http://www.w3.org/TR/2001/REC-SVG-20010904/DTD/svg10.dtd">
<svg version="1.0" xmlns="http://www.w3.org/2000/svg"
 width="250.000000pt" height="242.000000pt" viewBox="0 0 250.000000 242.000000"
 preserveAspectRatio="xMidYMid meet">
<metadata>
Created by potrace 1.15, written by Peter Selinger 2001-2017
</metadata>
<g transform="translate(0.000000,242.000000) scale(0.100000,-0.100000)"
fill="#000000" stroke="none">
<path d="M1970 2184 c-63 -17 -110 -43 -235 -129 -157 -109 -407 -222 -584
-265 -42 -10 -125 -21 -186 -25 -134 -7 -273 -29 -339 -51 -34 -12 -68 -35
-106 -73 -31 -31 -78 -72 -105 -91 -60 -43 -86 -88 -92 -161 -10 -102 55 -191
158 -219 21 -6 46 -21 55 -33 16 -22 16 -22 9 9 -6 31 -5 32 45 44 28 7 53 11
55 9 2 -2 10 -36 18 -74 15 -69 15 -70 16 -23 1 38 7 53 34 81 59 63 157 71
219 19 l31 -26 -7 35 -6 36 67 6 c38 4 144 7 237 7 149 0 175 -2 211 -20 48
-23 75 -64 76 -117 l1 -38 7 35 c4 19 13 45 19 57 29 53 128 72 206 39 38 -16
40 -16 82 9 154 90 319 250 373 360 28 59 33 79 33 143 -1 51 6 90 19 124 40
102 18 204 -58 267 -83 68 -165 90 -253 65z m66 -55 c-48 -11 -174 -77 -243
-127 l-51 -37 78 -19 c89 -21 107 -18 115 19 3 14 7 36 10 50 8 37 48 60 88
48 44 -12 42 -38 -3 -38 -32 0 -35 -3 -41 -35 -3 -19 -9 -44 -12 -55 -6 -19
-3 -21 48 -21 65 0 99 -21 134 -83 31 -56 31 -132 1 -192 l-22 -43 -13 30 c-7
16 -21 37 -33 47 -19 17 -23 17 -73 3 -28 -9 -183 -81 -343 -161 -407 -202
-464 -216 -865 -216 -130 0 -244 -3 -253 -5 -10 -3 -18 -15 -19 -27 0 -19 -2
-18 -11 6 -15 43 -2 92 35 124 25 22 32 37 33 67 2 51 45 95 100 103 32 4 53
-2 116 -35 93 -48 113 -54 144 -40 18 8 29 27 40 67 9 31 23 69 31 85 l15 29
-79 -7 c-95 -9 -350 -51 -386 -65 -35 -13 -34 -2 1 31 60 57 117 70 367 87
160 11 250 32 415 98 186 74 309 139 425 225 84 62 172 98 235 97 l55 -1 -39
-9z"/>
<path d="M1442 1778 c-6 -7 -13 -30 -17 -51 -11 -56 -45 -100 -89 -115 -33
-10 -48 -10 -95 4 -86 24 -135 28 -149 11 -13 -16 -53 -129 -47 -135 6 -6 163
28 228 50 103 34 407 178 407 193 0 2 -15 1 -32 -1 -25 -4 -48 3 -90 25 -61
33 -99 39 -116 19z"/>
<path d="M1023 1243 l-53 -4 0 -36 0 -36 50 7 c50 7 50 6 50 -21 0 -58 29
-405 34 -410 3 -3 17 -2 32 1 l27 7 -7 215 -7 214 51 0 50 0 0 35 0 35 -87 -2
c-49 -1 -112 -3 -140 -5z"/>
<path d="M1260 1001 l0 -251 84 0 c76 0 88 3 115 25 40 34 47 63 61 237 11
133 11 150 -4 173 -31 46 -62 59 -162 63 l-94 4 0 -251z m175 165 c20 -14 21
-28 9 -216 -7 -122 -17 -140 -76 -140 l-38 0 0 73 c0 39 3 123 7 185 l6 112
37 0 c20 0 45 -6 55 -14z"/>
<path d="M788 1218 c-22 -6 -51 -25 -68 -44 -33 -38 -37 -72 -20 -136 6 -20
21 -87 34 -148 27 -125 45 -154 108 -171 47 -12 99 9 132 54 20 27 20 30 4
201 -17 186 -26 215 -76 235 -45 17 -75 20 -114 9z m75 -76 c10 -10 18 -43 21
-77 l5 -60 -10 63 c-12 71 -34 92 -75 73 -29 -13 -29 -20 -3 -180 24 -150 31
-171 60 -171 l21 0 -20 18 c-16 14 -42 93 -42 130 0 5 16 6 35 4 34 -4 35 -3
36 29 l1 34 8 -28 c5 -15 12 -57 15 -93 6 -54 5 -68 -10 -84 -22 -25 -57 -26
-77 -2 -14 15 -59 255 -58 309 0 23 34 53 61 53 9 0 23 -8 32 -18z"/>
<path d="M1606 1199 c-14 -11 -30 -28 -35 -38 -5 -9 -17 -92 -26 -184 -16
-161 -16 -169 2 -200 25 -43 81 -70 128 -61 44 8 90 52 99 96 32 149 55 298
51 320 -4 15 -22 41 -41 58 -30 26 -42 30 -93 30 -44 0 -65 -5 -85 -21z m125
-58 l23 -19 -23 -148 c-13 -82 -30 -159 -37 -171 -18 -28 -55 -30 -79 -4 -19
22 -17 69 10 250 16 109 50 138 106 92z"/>
<path d="M602 1179 c-18 -3 -35 -8 -37 -11 -2 -2 7 -42 21 -88 33 -114 31
-121 -35 -137 -29 -8 -55 -12 -57 -10 -2 2 -15 48 -30 103 -14 54 -27 100 -28
102 -3 3 -66 -19 -66 -23 0 -1 11 -36 23 -76 13 -41 33 -105 45 -144 81 -272
75 -256 102 -250 14 4 26 7 27 8 1 1 -11 47 -27 102 -15 55 -25 103 -22 106 4
4 29 12 56 18 56 14 62 10 72 -49 3 -19 13 -59 21 -87 12 -44 18 -53 37 -53
12 0 25 2 28 5 5 5 -88 486 -94 490 -2 1 -18 -2 -36 -6z"/>
<path d="M1012 1162 c-41 -3 -43 -5 -38 -30 3 -15 10 -90 16 -167 15 -182 17
-195 19 -107 1 70 2 72 26 72 14 0 28 7 32 15 3 9 1 62 -3 118 l-9 102 -43 -3z"/>
<path d="M1160 1111 c0 -32 3 -79 6 -105 6 -38 10 -46 28 -46 44 0 51 14 54
115 l4 95 -46 0 -46 0 0 -59z"/>
<path d="M1936 1155 c-21 -7 -45 -20 -53 -27 -18 -19 -86 -344 -78 -376 10
-41 68 -92 105 -92 47 0 95 27 113 63 27 54 61 177 51 186 -11 9 -94 34 -99
29 -2 -2 -7 -16 -10 -31 -6 -23 -4 -29 14 -34 25 -6 25 -10 5 -80 -17 -58 -41
-77 -79 -63 -39 14 -44 44 -24 133 11 45 26 111 34 147 15 69 33 90 75 90 41
0 64 -31 55 -76 -7 -40 3 -54 41 -54 22 0 34 31 34 86 0 33 -55 92 -98 104
-44 12 -38 12 -86 -5z"/>
</g>
</svg>
